<svg width="32" height="32" viewBox="0 0 32 32" fill="none" xmlns="http://www.w3.org/2000/svg">
<rect width="32" height="32" rx="16" fill="black"/>
<path d="M19.5843 20.9254C19.0391 21.589 18.3292 22.0365 17.501 22.2629C17.1409 22.3606 16.9763 22.5509 16.9969 22.9264C17.0123 23.2968 16.9969 23.662 16.9917 24.0324C16.9917 24.3616 16.822 24.5365 16.4979 24.5468C16.287 24.552 16.0761 24.5571 15.8652 24.5571C15.68 24.5571 15.4948 24.5571 15.3096 24.552C14.9598 24.5468 14.7952 24.3462 14.7952 24.0067C14.7901 23.7392 14.7901 23.4666 14.7901 23.1991C14.7849 22.6024 14.7644 22.5818 14.1934 22.4892C13.4629 22.3709 12.7428 22.2063 12.074 21.8822C11.5494 21.625 11.4928 21.4964 11.6419 20.9408C11.7551 20.5293 11.8683 20.1178 11.9969 19.7114C12.0895 19.4131 12.1769 19.2793 12.3364 19.2793C12.429 19.2793 12.5473 19.3256 12.7068 19.4079C13.4475 19.7937 14.2345 20.0098 15.0627 20.1127C15.2016 20.1281 15.3405 20.1384 15.4794 20.1384C15.8652 20.1384 16.2407 20.0664 16.6059 19.9069C17.5267 19.5057 17.6708 18.4408 16.894 17.803C16.6317 17.5869 16.3282 17.4275 16.0144 17.2886C15.2068 16.9336 14.3683 16.6662 13.607 16.2083C12.3724 15.4676 11.5905 14.4542 11.6831 12.9522C11.786 11.2546 12.7479 10.195 14.3066 9.62912C14.9496 9.39763 14.9547 9.40278 14.9547 8.73405C14.9547 8.50772 14.9496 8.28138 14.9598 8.0499C14.9753 7.54578 15.0576 7.45833 15.5617 7.4429C15.6183 7.4429 15.68 7.4429 15.7366 7.4429C15.8343 7.4429 15.9321 7.4429 16.0298 7.4429C16.071 7.4429 16.1121 7.4429 16.1481 7.4429C17.1049 7.4429 17.1049 7.48405 17.1101 8.518C17.1152 9.27932 17.1152 9.27932 17.8714 9.39763C18.4526 9.49023 19.0031 9.65998 19.538 9.89661C19.8312 10.0252 19.9444 10.231 19.8518 10.5448C19.7181 11.0077 19.5895 11.4758 19.4454 11.9336C19.3528 12.2114 19.2654 12.34 19.1008 12.34C19.0082 12.34 18.895 12.304 18.751 12.232C18.0103 11.8719 17.2335 11.697 16.4208 11.697C16.3179 11.697 16.2098 11.7022 16.107 11.7073C15.8652 11.7227 15.6286 11.7536 15.4022 11.8513C14.5998 12.2011 14.4712 13.0859 15.1553 13.6312C15.5 13.909 15.8961 14.1044 16.3024 14.2742C17.0123 14.5674 17.7222 14.8503 18.3961 15.2207C20.5154 16.4038 21.0915 19.0941 19.5843 20.9254Z" fill="white"/>
</svg>
