<svg width="32" height="32" viewBox="0 0 32 32" fill="none" xmlns="http://www.w3.org/2000/svg">
<rect width="32" height="32" rx="16" fill="#26A17B"/>
<path fill-rule="evenodd" clip-rule="evenodd" d="M17.8519 16.6315V16.6297C17.7478 16.6363 17.2129 16.6684 16.0219 16.6684C15.0697 16.6684 14.3998 16.6414 14.1637 16.6291V16.6321C10.4995 16.4698 7.7644 15.8317 7.7644 15.0682C7.7644 14.3047 10.4998 13.6675 14.1637 13.5049V15.9964C14.4037 16.0129 15.0901 16.0534 16.0375 16.0534C17.1754 16.0534 17.7475 16.006 17.8525 15.9964V13.5049C21.5095 13.6678 24.2383 14.3065 24.2383 15.0673C24.2383 15.8281 21.5083 16.4671 17.8525 16.63L17.8519 16.6315ZM17.8507 13.2463V11.0149H22.9534V7.61501H9.0586V11.0149H14.1619V13.2445C10.0144 13.435 6.8959 14.2564 6.8959 15.2404C6.8959 16.2244 10.0159 17.0458 14.1619 17.2375V24.385H17.8519V17.2369C21.9919 17.0458 25.1041 16.225 25.1041 15.2419C25.1041 14.2588 21.9919 13.438 17.8519 13.2469" fill="white"/>
</svg>
